<svg width="24" height="24" viewBox="0 0 24 24" fill="none" xmlns="http://www.w3.org/2000/svg">
<path d="M12.12 16.83C12.12 16.962 12.222 17.07 12.345 17.07H17.895C18.018 17.07 18.12 16.962 18.12 16.83V15.39C18.12 15.258 18.018 15.15 17.895 15.15H12.345C12.222 15.15 12.12 15.258 12.12 15.39V16.83ZM6.273 17.013L12.033 12.183C12.147 12.087 12.147 11.91 12.033 11.814L6.273 6.987C6.23823 6.95743 6.1957 6.93846 6.15047 6.93234C6.10524 6.92622 6.0592 6.93321 6.01782 6.95248C5.97644 6.97175 5.94146 7.00248 5.91703 7.04104C5.8926 7.0796 5.87975 7.12436 5.88 7.17V9.051C5.88 9.123 5.91 9.189 5.967 9.234L9.261 12L5.967 14.766C5.94018 14.7884 5.91853 14.8164 5.90352 14.848C5.8885 14.8796 5.88048 14.914 5.88 14.949V16.83C5.88 17.034 6.117 17.145 6.273 17.013ZM23.04 0H0.96C0.429 0 0 0.429 0 0.96V23.04C0 23.571 0.429 24 0.96 24H23.04C23.571 24 24 23.571 24 23.04V0.96C24 0.429 23.571 0 23.04 0ZM21.84 21.84H2.16V2.16H21.84V21.84Z" fill="#544A08"/>
</svg>
