<svg width="37" height="25" viewBox="0 0 37 25" fill="none" xmlns="http://www.w3.org/2000/svg">
<path d="M1.71429 0.5C1.25963 0.5 0.823593 0.680612 0.502102 1.0021C0.180612 1.32359 0 1.75963 0 2.21429C0 2.66894 0.180612 3.10498 0.502102 3.42647C0.823593 3.74796 1.25963 3.92857 1.71429 3.92857H34.8571C35.3118 3.92857 35.7478 3.74796 36.0693 3.42647C36.3908 3.10498 36.5714 2.66894 36.5714 2.21429C36.5714 1.75963 36.3908 1.32359 36.0693 1.0021C35.7478 0.680612 35.3118 0.5 34.8571 0.5H1.71429ZM1.71429 7.35714C1.25963 7.35714 0.823593 7.53775 0.502102 7.85925C0.180612 8.18074 0 8.61677 0 9.07143C0 9.52609 0.180612 9.96212 0.502102 10.2836C0.823593 10.6051 1.25963 10.7857 1.71429 10.7857H34.8571C35.3118 10.7857 35.7478 10.6051 36.0693 10.2836C36.3908 9.96212 36.5714 9.52609 36.5714 9.07143C36.5714 8.61677 36.3908 8.18074 36.0693 7.85925C35.7478 7.53775 35.3118 7.35714 34.8571 7.35714H1.71429ZM0 15.9286C0 15.4739 0.180612 15.0379 0.502102 14.7164C0.823593 14.3949 1.25963 14.2143 1.71429 14.2143H34.8571C35.3118 14.2143 35.7478 14.3949 36.0693 14.7164C36.3908 15.0379 36.5714 15.4739 36.5714 15.9286C36.5714 16.3832 36.3908 16.8193 36.0693 17.1408C35.7478 17.4622 35.3118 17.6429 34.8571 17.6429H1.71429C1.25963 17.6429 0.823593 17.4622 0.502102 17.1408C0.180612 16.8193 0 16.3832 0 15.9286ZM1.71429 21.0714C1.25963 21.0714 0.823593 21.252 0.502102 21.5735C0.180612 21.895 0 22.3311 0 22.7857C0 23.2404 0.180612 23.6764 0.502102 23.9979C0.823593 24.3194 1.25963 24.5 1.71429 24.5H23.4286C23.8832 24.5 24.3193 24.3194 24.6408 23.9979C24.9622 23.6764 25.1429 23.2404 25.1429 22.7857C25.1429 22.3311 24.9622 21.895 24.6408 21.5735C24.3193 21.252 23.8832 21.0714 23.4286 21.0714H1.71429Z" fill="black"/>
</svg>
