<svg width="17" height="17" viewBox="0 0 17 17" fill="none" xmlns="http://www.w3.org/2000/svg">
<path d="M8.46655 0.900391C3.92581 0.898555 0.248047 4.57448 0.248047 9.11155C0.248047 12.6993 2.54871 15.7491 5.75275 16.8692C6.18424 16.9775 6.11814 16.6709 6.11814 16.4616V15.0386C3.62652 15.3305 3.52553 13.6817 3.35844 13.4062C3.0206 12.8297 2.22188 12.6828 2.46058 12.4074C3.02794 12.1154 3.60632 12.4808 4.27651 13.4705C4.76124 14.1884 5.70685 14.0672 6.18608 13.9479C6.29074 13.5164 6.51474 13.1308 6.82321 12.8315C4.24162 12.3688 3.16565 10.7934 3.16565 8.92059C3.16565 8.01171 3.46494 7.17627 4.0525 6.50241C3.67793 5.39155 4.08739 4.44044 4.14247 4.29906C5.20926 4.20358 6.31828 5.06289 6.40458 5.13083C7.0105 4.96741 7.70272 4.88111 8.47756 4.88111C9.25608 4.88111 9.95014 4.97108 10.5616 5.13633C10.769 4.97843 11.7973 4.2403 12.7888 4.33027C12.842 4.47166 13.2423 5.40074 12.8898 6.4969C13.4847 7.1726 13.7876 8.01538 13.7876 8.9261C13.7876 10.8026 12.7043 12.3798 10.1154 12.8352C10.3371 13.0533 10.5132 13.3134 10.6333 13.6002C10.7534 13.8871 10.8152 14.1951 10.815 14.5061V16.5717C10.8296 16.737 10.815 16.9004 11.0904 16.9004C14.3421 15.8042 16.6832 12.7324 16.6832 9.11338C16.6832 4.57448 13.0036 0.900391 8.46655 0.900391Z" fill="black"/>
</svg>
