<svg width="433" height="400" viewBox="0 0 433 400" fill="none" xmlns="http://www.w3.org/2000/svg">
<path d="M232.432 16.2162C232.432 11.9154 230.724 7.79075 227.683 4.74962C224.642 1.70849 220.517 0 216.216 0C211.915 0 207.791 1.70849 204.75 4.74962C201.709 7.79075 200 11.9154 200 16.2162V48.6486C200 52.9495 201.709 57.0741 204.75 60.1152C207.791 63.1564 211.915 64.8649 216.216 64.8649C220.517 64.8649 224.642 63.1564 227.683 60.1152C230.724 57.0741 232.432 52.9495 232.432 48.6486V16.2162ZM368.216 64.2162C371.253 67.2568 372.959 71.3784 372.959 75.6757C372.959 79.973 371.253 84.0946 368.216 87.1351L345.297 110.076C342.24 113.031 338.145 114.668 333.893 114.633C329.641 114.598 325.573 112.894 322.565 109.889C319.557 106.884 317.85 102.817 317.811 98.5654C317.772 94.3136 319.404 90.2166 322.357 87.1568L345.276 64.2162C346.782 62.7093 348.57 61.5139 350.538 60.6983C352.506 59.8827 354.616 59.4629 356.746 59.4629C358.876 59.4629 360.986 59.8827 362.954 60.6983C364.922 61.5139 366.71 62.7093 368.216 64.2162ZM333.189 237.838C336.33 220.692 335.662 203.065 331.235 186.205C326.807 169.345 318.726 153.665 307.566 140.275C296.406 126.885 282.438 116.112 266.652 108.719C250.866 101.326 233.648 97.4939 216.216 97.4939C198.785 97.4939 181.567 101.326 165.781 108.719C149.995 116.112 136.027 126.885 124.866 140.275C113.706 153.665 105.626 169.345 101.198 186.205C96.77 203.065 96.1027 220.692 99.2432 237.838H16.2162C11.9154 237.838 7.79075 239.546 4.74962 242.587C1.70849 245.629 0 249.753 0 254.054C0 258.355 1.70849 262.48 4.74962 265.521C7.79075 268.562 11.9154 270.27 16.2162 270.27H416.216C420.517 270.27 424.642 268.562 427.683 265.521C430.724 262.48 432.432 258.355 432.432 254.054C432.432 249.753 430.724 245.629 427.683 242.587C424.642 239.546 420.517 237.838 416.216 237.838H333.189ZM216.216 129.73C229.417 129.726 242.444 132.745 254.298 138.555C266.153 144.364 276.52 152.81 284.605 163.246C292.69 173.681 298.28 185.829 300.944 198.758C303.609 211.688 303.279 225.056 299.978 237.838H132.454C129.154 225.056 128.823 211.688 131.488 198.758C134.153 185.829 139.742 173.681 147.827 163.246C155.913 152.81 166.28 144.364 178.134 138.555C189.988 132.745 203.015 129.726 216.216 129.73ZM86.4865 318.919C86.4865 314.618 88.195 310.493 91.2361 307.452C94.2772 304.411 98.4019 302.703 102.703 302.703H329.73C334.031 302.703 338.155 304.411 341.196 307.452C344.237 310.493 345.946 314.618 345.946 318.919C345.946 323.22 344.237 327.344 341.196 330.386C338.155 333.427 334.031 335.135 329.73 335.135H102.703C98.4019 335.135 94.2772 333.427 91.2361 330.386C88.195 327.344 86.4865 323.22 86.4865 318.919ZM172.973 383.784C172.973 379.483 174.681 375.358 177.723 372.317C180.764 369.276 184.888 367.568 189.189 367.568H243.243C247.544 367.568 251.669 369.276 254.71 372.317C257.751 375.358 259.459 379.483 259.459 383.784C259.459 388.085 257.751 392.209 254.71 395.25C251.669 398.292 247.544 400 243.243 400H189.189C184.888 400 180.764 398.292 177.723 395.25C174.681 392.209 172.973 388.085 172.973 383.784ZM64.2162 64.2162C67.2568 61.1794 71.3784 59.4737 75.6757 59.4737C79.973 59.4737 84.0946 61.1794 87.1351 64.2162L110.076 87.1351C111.625 88.6303 112.861 90.4191 113.712 92.3971C114.563 94.3752 115.011 96.5028 115.031 98.656C115.051 100.809 114.641 102.945 113.827 104.938C113.013 106.931 111.809 108.742 110.288 110.266C108.766 111.789 106.956 112.994 104.963 113.81C102.971 114.627 100.835 115.038 98.6823 115.02C96.5291 115.002 94.401 114.556 92.4222 113.707C90.4433 112.858 88.6534 111.624 87.1568 110.076L64.2162 87.1568C62.7093 85.6508 61.5139 83.8627 60.6983 81.8946C59.8827 79.9264 59.4629 77.8169 59.4629 75.6865C59.4629 73.5561 59.8827 71.4465 60.6983 69.4784C61.5139 67.5103 62.7093 65.7222 64.2162 64.2162Z" fill="black"/>
</svg>
