<svg width="379" height="400" viewBox="0 0 379 400" fill="none" xmlns="http://www.w3.org/2000/svg">
<path d="M157.853 336.863L79.8526 258.863L109.642 229.074L157.937 277.368L269.368 165.937L299.158 195.726L157.853 336.863ZM378.947 84.2105V357.895C378.947 369.062 374.511 379.771 366.615 387.668C358.719 395.564 348.009 400 336.842 400H42.1053C30.9383 400 20.2286 395.564 12.3323 387.668C4.43608 379.771 0 369.062 0 357.895V84.2105C0 73.0435 4.43608 62.3339 12.3323 54.4376C20.2286 46.5413 30.9383 42.1053 42.1053 42.1053H63.1579V0H105.263V42.1053H273.684V0H315.789V42.1053H336.842C348.009 42.1053 358.719 46.5413 366.615 54.4376C374.511 62.3339 378.947 73.0435 378.947 84.2105ZM336.842 126.316H42.1053V357.895H336.842V126.316Z" fill="black"/>
</svg>
