<svg width="17" height="13" viewBox="0 0 17 13" fill="none" xmlns="http://www.w3.org/2000/svg">
<path d="M6.0893 6.90039C6.0893 7.44709 6.30647 7.97141 6.69305 8.35799C7.07963 8.74456 7.60394 8.96174 8.15065 8.96174C8.69735 8.96174 9.22166 8.74456 9.60824 8.35799C9.99482 7.97141 10.212 7.44709 10.212 6.90039C10.212 6.35369 9.99482 5.82937 9.60824 5.4428C9.22166 5.05622 8.69735 4.83904 8.15065 4.83904C7.60394 4.83904 7.07963 5.05622 6.69305 5.4428C6.30647 5.82937 6.0893 6.35369 6.0893 6.90039ZM16.1421 6.42554C14.3973 2.75008 11.7598 0.900391 8.22427 0.900391C4.68684 0.900391 2.05126 2.75008 0.306475 6.42738C0.236491 6.57557 0.200195 6.73743 0.200195 6.90131C0.200195 7.0652 0.236491 7.22705 0.306475 7.37524C2.05126 11.0507 4.68868 12.9004 8.22427 12.9004C11.7617 12.9004 14.3973 11.0507 16.1421 7.3734C16.2838 7.07524 16.2838 6.72923 16.1421 6.42554ZM8.15065 10.1397C6.36169 10.1397 4.91138 8.68935 4.91138 6.90039C4.91138 5.11143 6.36169 3.66113 8.15065 3.66113C9.9396 3.66113 11.3899 5.11143 11.3899 6.90039C11.3899 8.68935 9.9396 10.1397 8.15065 10.1397Z" fill="black"/>
</svg>
