<svg width="44" height="45" viewBox="0 0 44 45" fill="none" xmlns="http://www.w3.org/2000/svg">
<path d="M4.08815 21.9648C2.02634 26.9073 5.60959 32.8727 10.8147 33.9184C6.7584 31.1945 4.22565 26.8186 4.08815 21.9648Z" fill="#544A08"/>
<path d="M41.6064 10.6624C40.9543 10.164 40.1562 9.89436 39.3356 9.89517C34.3814 9.89517 33.4932 16.348 32.3939 18.867C32.3939 18.867 27.3139 8.23211 25.5471 4.72311C23.7252 1.10342 19.836 1.85142 18.6968 3.82179C15.9908 1.01748 10.8779 3.28142 11.5296 6.69073C8.02062 6.42123 6.6023 9.88279 7.38124 12.102C4.66906 12.0182 3.4013 15.3725 4.31843 17.7739C4.36587 17.899 9.18112 27.3755 10.4777 30.604C10.6283 30.9787 10.7802 31.3795 10.9397 31.8017C11.9882 34.5737 13.4244 38.37 17.0172 41.4191C18.5641 42.7315 20.7057 43.4252 23.2123 43.4252C27.6302 43.4252 32.5492 41.2328 35.7447 37.8386C38.6068 34.7992 39.9784 31.0681 39.7116 27.0483C39.4724 23.4348 40.6219 20.0303 41.5452 17.294C42.5469 14.3247 43.3375 11.979 41.6064 10.6624ZM37.5178 26.9287C38.0767 34.9229 30.0639 41.668 23.2659 41.668C21.189 41.668 19.0378 41.3325 17.6937 40.1919C13.8396 36.9208 12.8723 32.8728 11.7551 30.0967C10.4207 26.7754 7.14543 20.3933 5.55799 17.1827C4.9083 15.8682 5.99387 13.0707 7.88449 13.0707L13.3371 24.6675L15.403 25.9077C15.403 25.9077 10.6716 15.5966 9.17355 12.0429C8.29905 9.96804 9.80606 7.46279 11.8369 7.78936L18.6061 22.2379L20.6727 23.4809L12.7829 6.82067C12.7513 3.86786 16.7917 3.82179 17.7309 5.54604C20.1076 9.91029 24.5694 19.4879 24.5694 19.4879L26.6347 20.7302L19.2282 5.02561C20.6747 3.13223 23.2267 3.39761 24.3267 5.69592C25.6481 8.45623 31.2437 20.4455 31.2437 20.4455C25.7196 22.5163 21.9487 28.5189 25.897 34.4362C22.7641 27.9668 28.3142 23.3949 31.5929 21.8838C32.8339 21.3111 33.2904 20.2283 33.2904 20.2283L33.2876 20.229C33.7201 19.4459 33.6946 18.3989 34.2102 16.7042C35.3274 13.0364 36.8599 11.0928 39.1087 11.0928C39.6271 11.0928 40.2802 11.4805 40.5799 11.9226C42.0945 14.1577 36.9981 19.5009 37.5178 26.9287Z" fill="#544A08"/>
</svg>
