<svg width="502" height="400" viewBox="0 0 502 400" fill="none" xmlns="http://www.w3.org/2000/svg">
<path d="M246.157 184.126H208.219V120.59H253.226C277.695 120.59 291.582 131.507 291.582 151.25C291.582 172.331 275.416 184.126 246.115 184.126H246.157ZM252.933 209.349H208.24V279.368H254.899C285.413 279.368 301.579 267.134 301.579 244.128C301.579 221.123 284.952 209.349 252.933 209.349ZM501.935 187.263V212.737C478.344 214.995 463.934 232.479 455.38 260.169C446.868 287.755 445.697 321.594 446.596 347.715C447.537 374.903 426.352 400 397.72 400H104.256C75.6039 400 54.4181 374.903 55.3801 347.715C56.2794 321.594 55.1082 287.755 46.5963 260.169C38.0215 232.479 23.5909 214.995 0 212.737V187.263C23.5909 185.005 38.0425 167.521 46.5753 139.831C55.1082 112.245 56.2794 78.4064 55.3592 52.2848C54.4181 25.0967 75.6039 0 104.256 0H397.72C426.372 0 447.537 25.0967 446.596 52.2848C445.697 78.4064 446.868 112.245 455.38 139.831C463.934 167.521 478.344 185.005 501.935 187.263ZM336.15 246.178C336.15 217.861 316.219 197.386 286.626 194.144V192.952C308.376 189.418 325.442 169.215 325.442 146.669C325.442 114.525 300.073 93.5899 261.403 93.5899H174.401V306.326H261.843C308.23 306.326 336.15 283.614 336.15 246.178Z" fill="black"/>
</svg>
