<svg width="400" height="400" viewBox="0 0 400 400" fill="none" xmlns="http://www.w3.org/2000/svg">
<path d="M262.5 62.5C262.5 79.076 255.915 94.9731 244.194 106.694C232.473 118.415 216.576 125 200 125C183.424 125 167.527 118.415 155.806 106.694C144.085 94.9731 137.5 79.076 137.5 62.5C137.5 45.924 144.085 30.0269 155.806 18.3058C167.527 6.5848 183.424 0 200 0C216.576 0 232.473 6.5848 244.194 18.3058C255.915 30.0269 262.5 45.924 262.5 62.5ZM387.5 75C387.5 88.2608 382.232 100.979 372.855 110.355C363.479 119.732 350.761 125 337.5 125C324.239 125 311.521 119.732 302.145 110.355C292.768 100.979 287.5 88.2608 287.5 75C287.5 61.7392 292.768 49.0215 302.145 39.6447C311.521 30.2678 324.239 25 337.5 25C350.761 25 363.479 30.2678 372.855 39.6447C382.232 49.0215 387.5 61.7392 387.5 75ZM62.5 125C75.7608 125 88.4785 119.732 97.8553 110.355C107.232 100.979 112.5 88.2608 112.5 75C112.5 61.7392 107.232 49.0215 97.8553 39.6447C88.4785 30.2678 75.7608 25 62.5 25C49.2392 25 36.5215 30.2678 27.1447 39.6447C17.7678 49.0215 12.5 61.7392 12.5 75C12.5 88.2608 17.7678 100.979 27.1447 110.355C36.5215 119.732 49.2392 125 62.5 125ZM100 181.25C100 164 114 150 131.25 150H268.75C286 150 300 164 300 181.25V300C300 326.522 289.464 351.957 270.711 370.711C251.957 389.464 226.522 400 200 400C173.478 400 148.043 389.464 129.289 370.711C110.536 351.957 100 326.522 100 300V181.25ZM75 181.25C75 169.675 78.5 158.95 84.475 150H31.25C14 150 4.45951e-07 164 4.45951e-07 181.25V275C-0.00116665 285.703 2.28846 296.282 6.71504 306.027C11.1416 315.772 17.6026 324.456 25.6639 331.497C33.7251 338.537 43.1999 343.771 53.4517 346.846C63.7034 349.921 74.4945 350.766 85.1 349.325C78.4112 333.742 74.9744 316.958 75 300V181.25ZM325 300C325 317.5 321.4 334.2 314.9 349.325C325.505 350.766 336.297 349.921 346.548 346.846C356.8 343.771 366.275 338.537 374.336 331.497C382.397 324.456 388.858 315.772 393.285 306.027C397.712 296.282 400.001 285.703 400 275V181.25C400 164 386 150 368.75 150H315.525C321.525 158.95 325 169.675 325 181.25V300Z" fill="black"/>
</svg>
